<?xml version="1.0" standalone="no"?>
<!DOCTYPE svg PUBLIC "-//W3C//DTD SVG 20010904//EN"
 "http://www.w3.org/TR/2001/REC-SVG-20010904/DTD/svg10.dtd">
<svg version="1.0" xmlns="http://www.w3.org/2000/svg"
 width="512.000000pt" height="512.000000pt" viewBox="0 0 512.000000 512.000000"
 preserveAspectRatio="xMidYMid meet">
<metadata>
Created by potrace 1.14, written by Peter Selinger 2001-2017
</metadata>
<g transform="translate(0.000000,512.000000) scale(0.100000,-0.100000)"
fill="#000000" stroke="none">
<path d="M1168 4405 c-2 -2 -41 -6 -88 -10 -87 -6 -147 -12 -212 -21 -21 -3
-50 -7 -65 -9 -64 -8 -119 -16 -138 -20 -11 -2 -30 -4 -42 -4 l-23 -1 0 -1504
0 -1504 48 -11 c74 -17 240 -42 377 -57 33 -3 74 -8 90 -10 17 -3 143 -6 280
-8 252 -3 356 4 526 39 483 97 749 419 751 910 1 159 -20 251 -89 392 -44 89
-103 157 -193 222 -38 28 -71 51 -73 51 -3 0 -43 18 -91 41 l-86 40 57 39
c248 166 365 436 323 743 -28 209 -113 360 -266 475 -122 93 -340 169 -559
198 -54 6 -521 15 -527 9z m500 -550 c123 -25 214 -96 242 -187 44 -146 11
-309 -83 -398 -94 -91 -197 -118 -442 -116 l-170 1 0 348 c0 191 0 347 0 347
0 0 25 3 55 6 30 4 56 7 58 9 10 8 291 1 340 -10z m42 -1229 c14 -3 41 -9 60
-12 61 -12 168 -73 210 -121 60 -68 83 -138 86 -260 3 -134 -19 -207 -87 -294
-54 -69 -178 -131 -294 -147 -65 -9 -367 -8 -425 1 l-45 7 0 421 0 421 235 -5
c129 -2 246 -7 260 -11z"/>
<path d="M2583 1284 c-21 -21 -24 -32 -19 -62 6 -39 36 -72 67 -72 67 0 102
62 70 122 -24 45 -79 51 -118 12z"/>
<path d="M2945 1086 l-50 -11 -1 -228 -1 -228 61 3 61 3 1 160 c1 88 2 170 3
183 1 19 7 22 40 22 23 0 48 -8 62 -19 23 -19 24 -25 28 -185 l3 -166 60 0 60
0 -4 178 c-4 209 -14 242 -86 279 -48 24 -151 28 -237 9z"/>
<path d="M3506 1085 c-60 -21 -88 -46 -116 -101 -20 -40 -24 -63 -24 -125 1
-145 65 -218 187 -214 34 1 69 5 78 9 12 5 14 0 11 -30 -8 -67 -102 -94 -201
-59 -40 14 -42 14 -50 -8 -4 -12 -11 -36 -14 -54 -6 -31 -5 -33 36 -44 62 -18
172 -20 224 -4 25 8 58 26 74 41 50 48 57 89 58 343 l2 231 -28 11 c-45 18
-192 20 -237 4z m139 -203 c0 -57 -3 -108 -6 -113 -3 -5 -22 -12 -43 -16 -44
-7 -79 9 -95 44 -18 38 -13 114 8 150 21 33 43 42 101 39 l34 -1 1 -103z"/>
<path d="M2418 1083 c-3 -7 -2 -49 1 -80 1 -10 27 -13 95 -13 l94 0 -1 -196
c0 -177 -2 -198 -19 -220 -24 -30 -66 -31 -126 -4 l-43 20 -13 -33 c-31 -74
-31 -74 21 -94 30 -11 74 -18 118 -18 85 0 128 22 159 80 20 37 21 59 24 303
l3 262 -155 0 c-85 0 -156 -3 -158 -7z"/>
<path d="M4390 915 c2 -157 4 -178 23 -217 34 -67 86 -89 201 -84 50 2 106 9
124 16 l32 12 0 224 0 224 -63 0 -64 0 2 -172 c0 -95 0 -178 -2 -184 -5 -14
-70 -17 -93 -4 -17 9 -31 35 -35 65 -1 6 -3 74 -3 153 l-2 142 -60 0 -61 0 1
-175z"/>
<path d="M4038 783 c-19 -5 -48 -61 -48 -93 0 -33 53 -80 90 -80 39 0 90 47
90 84 0 71 -56 109 -132 89z"/>
</g>
</svg>
